<svg width="58" height="43" viewBox="0 0 58 43" fill="none" xmlns="http://www.w3.org/2000/svg">
<g filter="url(#filter0_d_6_105)">
<path d="M28.9977 32.563L39.1306 32.0387L38.9022 32.8396C38.742 33.0251 38.555 33.1556 38.3499 33.2551C37.1841 33.5864 33.9083 34.9975 28.9977 34.8845C24.0868 34.9975 20.8111 33.5864 19.6454 33.2551C19.4404 33.1556 19.2534 33.0251 19.0931 32.8396L18.8647 32.0387L28.9977 32.563Z" fill="#DCDCD9"/>
<path d="M4.19142 11.0892L4.54416 11.3408L24.8326 13.6344L33.2061 13.6135L53.4947 11.3202L53.8471 11.0682C53.8471 11.0682 51.9422 30.0933 33.9901 33.7306C32.4695 34.0655 30.7518 34.2552 28.9324 34.2552C26.9682 34.2552 25.1218 34.0343 23.5148 33.6472C6.00211 29.8092 4.19142 11.0892 4.19142 11.0892Z" fill="#F1F1EF"/>
<path d="M4 9.90697C4 15.1168 15.1926 19.34 28.9999 19.34C42.8068 19.34 54 15.1168 54 9.90697C54 4.69711 42.8068 0.473942 28.9999 0.473942C15.1926 0.473942 4 4.69711 4 9.90697Z" fill="white"/>
<path d="M4 9.43303C4 14.6429 15.1926 18.8659 28.9999 18.8659C42.8068 18.8659 54 14.6429 54 9.43303C54 4.22317 42.8068 -1.90735e-06 28.9999 -1.90735e-06C15.1926 -1.90735e-06 4 4.22317 4 9.43303Z" fill="#E6E5E3"/>
<path d="M29.0121 0.307553C15.431 0.307553 4.25941 4.4971 4.25941 9.75792C4.25941 10.7892 4.84593 11.8566 5.62802 12.7863C4.57719 11.7446 4 10.6141 4 9.43302C4 4.22317 15.1926 -6.67572e-06 28.9999 -6.67572e-06C42.8068 -6.67572e-06 54 4.22317 54 9.43302C54 10.5572 53.4775 11.6353 52.521 12.6356C53.2238 11.7492 53.7366 10.7024 53.7366 9.72725C53.7366 4.46613 42.5935 0.307553 29.0121 0.307553Z" fill="white"/>
<path d="M38.493 18.1615C35.5657 18.6151 32.3606 18.8659 28.9999 18.8659C25.6391 18.8659 22.434 18.6151 19.5067 18.1615C21.8595 17.1915 25.24 16.5823 28.9999 16.5823C32.7597 16.5823 36.14 17.1915 38.493 18.1615Z" fill="#DCDCD9"/>
<path d="M28.9999 4.1251C41.8114 4.1251 52.1974 8.04382 52.1974 12.8778C52.1974 12.9043 52.1954 12.931 52.1948 12.9577C48.4944 16.4213 39.5042 18.8659 28.9999 18.8659C18.4953 18.8659 9.50556 16.4213 5.80507 12.9577C5.80447 12.931 5.80255 12.9043 5.80255 12.8778C5.80255 8.04382 16.188 4.1251 28.9999 4.1251Z" fill="#FBC12B"/>
<path d="M28.9999 18.8659C39.5042 18.8659 48.4944 16.4213 52.1948 12.9577C52.1954 12.931 52.1974 12.9043 52.1974 12.8778C52.1974 8.08308 41.9785 4.18865 29.3104 4.12584C34.4877 4.15147 39.255 4.81755 43.0837 5.92305C39.3013 4.90141 34.3804 4.28391 28.9999 4.28391C28.6426 4.28391 28.2872 4.28658 27.9341 4.29206C28.0627 4.39577 28.1999 4.51844 28.3337 4.65962C28.5549 4.6574 28.777 4.65637 28.9999 4.65637C39.9685 4.65637 48.8607 7.32589 48.8607 10.619C48.8607 13.9125 39.9685 16.5823 28.9999 16.5823C18.031 16.5823 9.13933 13.9125 9.13933 10.619C9.13933 7.5367 16.9292 5.00067 26.9208 4.68851C26.9449 4.56496 26.9775 4.43903 27.02 4.31206C22.4157 4.44333 18.2291 5.02807 14.9159 5.92305C18.3439 4.93326 22.524 4.29577 27.0775 4.15473V4.15458C15.1652 4.52347 5.80255 8.28812 5.80255 12.8778C5.80255 12.9043 5.80447 12.931 5.80507 12.9577C9.50556 16.4213 18.4953 18.8659 28.9999 18.8659ZM27.8109 4.59755C27.7402 4.48466 27.6753 4.38451 27.6174 4.29755C27.5528 4.29888 27.4885 4.30021 27.424 4.30169C27.5371 4.37858 27.6709 4.47755 27.8109 4.59755ZM27.1864 4.15147C27.2949 4.14821 27.4035 4.14539 27.5123 4.14273C27.4037 4.14539 27.2944 4.14821 27.1863 4.15132C27.1864 4.15132 27.1864 4.15132 27.1864 4.15147ZM27.7313 4.13784C28.0488 4.13147 28.3685 4.12732 28.6893 4.12584C28.3688 4.12732 28.0485 4.13147 27.7313 4.13784ZM29.309 4.12584C29.2887 4.12569 29.2684 4.12554 29.2482 4.12554C29.2685 4.12554 29.2887 4.12569 29.309 4.12584ZM28.6909 4.12584C28.7112 4.12569 28.7312 4.12554 28.7515 4.12554C28.7313 4.12554 28.711 4.12569 28.6909 4.12584ZM29.2478 4.12554C29.2376 4.12554 29.2288 4.12539 29.2187 4.12539C29.2284 4.12539 29.238 4.12554 29.2478 4.12554ZM28.7521 4.12554C28.7617 4.12554 28.7713 4.12539 28.781 4.12539C28.7709 4.12539 28.7621 4.12554 28.7521 4.12554ZM29.2147 4.12539C29.2045 4.12539 29.1962 4.12539 29.186 4.12525C29.1958 4.12539 29.205 4.12539 29.2147 4.12539ZM28.7851 4.12539C28.7947 4.12539 28.8039 4.12539 28.8137 4.12525C28.8035 4.12539 28.7952 4.12539 28.7851 4.12539ZM29.1856 4.12525C29.1761 4.12525 29.1669 4.12525 29.1576 4.12525C29.1669 4.12525 29.1761 4.12525 29.1856 4.12525ZM28.8143 4.12525C28.8236 4.12525 28.8328 4.12525 28.8421 4.12525C28.8328 4.12525 28.8236 4.12525 28.8143 4.12525ZM29.1534 4.12525C29.1441 4.12525 29.1352 4.12525 29.1257 4.1251C29.1349 4.12525 29.1444 4.12525 29.1534 4.12525ZM28.8463 4.12525C28.8553 4.12525 28.865 4.12525 28.874 4.1251C28.8645 4.12525 28.8556 4.12525 28.8463 4.12525ZM29.1216 4.1251C29.1027 4.1251 29.0833 4.1251 29.0647 4.1251C29.0836 4.1251 29.1024 4.1251 29.1216 4.1251ZM28.8781 4.1251C28.8973 4.1251 28.9161 4.1251 28.935 4.1251C28.9164 4.1251 28.897 4.1251 28.8781 4.1251ZM29.0604 4.1251C29.0509 4.1251 29.0427 4.1251 29.0333 4.1251C29.0423 4.1251 29.0512 4.1251 29.0604 4.1251ZM28.9395 4.1251C28.9485 4.1251 28.9574 4.1251 28.9664 4.1251C28.9571 4.1251 28.9488 4.1251 28.9395 4.1251ZM29.0273 4.1251C29.018 4.1251 29.0093 4.1251 28.9999 4.1251C28.9904 4.1251 28.9817 4.1251 28.9724 4.1251C28.9814 4.1251 28.9909 4.1251 28.9999 4.1251C29.009 4.1251 29.0183 4.1251 29.0273 4.1251Z" fill="#F9AD25"/>
<path d="M14.9159 5.92307C18.2291 5.02809 22.4157 4.44334 27.02 4.31208C27.0375 4.25978 27.0566 4.20733 27.0775 4.15474C22.524 4.29578 18.3439 4.93327 14.9159 5.92307ZM43.0837 5.92307C39.255 4.81757 34.4877 4.15148 29.3104 4.12585C29.3097 4.12585 29.3097 4.12585 29.309 4.12585C29.2887 4.1257 29.2685 4.12556 29.2482 4.12556H29.2478C29.238 4.12556 29.2284 4.12541 29.2187 4.12541C29.218 4.12541 29.2155 4.12541 29.2147 4.12541C29.205 4.12541 29.1958 4.12541 29.186 4.12526H29.1856C29.1761 4.12526 29.1669 4.12526 29.1576 4.12526C29.1568 4.12526 29.1543 4.12526 29.1534 4.12526C29.1444 4.12526 29.1349 4.12526 29.1257 4.12511C29.1242 4.12511 29.123 4.12511 29.1216 4.12511C29.1024 4.12511 29.0836 4.12511 29.0647 4.12511C29.063 4.12511 29.0618 4.12511 29.0604 4.12511C29.0512 4.12511 29.0423 4.12511 29.0333 4.12511C29.0318 4.12511 29.029 4.12511 29.0273 4.12511C29.0183 4.12511 29.009 4.12511 28.9999 4.12511C28.9909 4.12511 28.9814 4.12511 28.9724 4.12511C28.9709 4.12511 28.9679 4.12511 28.9664 4.12511C28.9574 4.12511 28.9485 4.12511 28.9395 4.12511C28.9378 4.12511 28.9367 4.12511 28.935 4.12511C28.9161 4.12511 28.8973 4.12511 28.8781 4.12511C28.8767 4.12511 28.8755 4.12511 28.874 4.12511C28.865 4.12526 28.8553 4.12526 28.8463 4.12526C28.8455 4.12526 28.843 4.12526 28.8421 4.12526C28.8328 4.12526 28.8236 4.12526 28.8143 4.12526H28.8137C28.8039 4.12541 28.7947 4.12541 28.7851 4.12541C28.7842 4.12541 28.7818 4.12541 28.781 4.12541C28.7713 4.12541 28.7617 4.12556 28.7521 4.12556H28.7515C28.7312 4.12556 28.7112 4.1257 28.6909 4.12585C28.69 4.12585 28.69 4.12585 28.6893 4.12585C28.3685 4.12733 28.0488 4.13148 27.7313 4.13785C27.7949 4.18334 27.8632 4.23489 27.9341 4.29208C28.2872 4.2866 28.6426 4.28393 28.9999 4.28393C34.3804 4.28393 39.3013 4.90142 43.0837 5.92307ZM27.424 4.30171C27.4885 4.30023 27.5528 4.29889 27.6174 4.29756C27.5792 4.24023 27.544 4.18852 27.5123 4.14274C27.4035 4.14541 27.2949 4.14822 27.1864 4.15148C27.2437 4.18467 27.3261 4.23504 27.424 4.30171Z" fill="#F79621"/>
<path d="M8.21548 16.89C13.7607 19.473 21.1422 20.8953 28.999 20.8953C36.8559 20.8953 44.2369 19.473 49.7826 16.89C51.0546 16.298 51.9936 15.7936 52.9969 15.1156L52.7801 15.8442C47.3749 19.2222 38.595 21.6062 28.999 21.6062C19.4281 21.6062 10.6493 19.2298 5.24195 15.867L5.0258 15.1316C6.01856 15.7984 6.96212 16.3066 8.21548 16.89Z" fill="#D40000"/>
<path d="M41.4934 14.7018C45.299 13.7218 47.7052 12.2762 47.7052 10.6639C47.7052 7.71137 39.6368 5.318 29.6835 5.318C29.6825 5.318 29.6813 5.318 29.6802 5.318C29.7244 5.47697 29.7604 5.66571 29.7737 5.88186C29.9345 5.8869 30.0947 5.89253 30.2543 5.89875C30.3822 5.77712 30.5336 5.66527 30.7087 5.5863C30.7087 5.5863 30.7228 5.71401 30.7287 5.9192C31.1509 5.93905 31.5687 5.9632 31.9806 5.99164C31.6908 5.91697 31.7043 5.62423 31.9503 5.53978C32.001 5.46571 32.1016 5.40985 32.246 5.40985C32.2798 5.40985 32.3161 5.41297 32.3546 5.41963C32.5886 5.45993 32.696 5.56556 32.696 5.66793C32.6961 5.74542 32.6343 5.82097 32.5192 5.86438C32.4706 5.93727 32.3607 5.99549 32.1988 6.0072C33.5545 6.10601 34.8501 6.25046 36.0656 6.43461C36.1054 6.3795 36.1625 6.33402 36.2302 6.30631C36.2983 6.22557 36.4058 6.17001 36.527 6.17001C36.619 6.17001 36.7188 6.20201 36.8154 6.27964C36.9248 6.3675 36.9735 6.47639 36.9734 6.57669C36.9734 6.57846 36.9734 6.58024 36.9732 6.58202C42.3149 7.50959 45.9028 9.22976 45.9028 11.1984C45.9028 12.5387 44.2403 13.7635 41.4934 14.7018ZM16.0711 7.1604C16.6984 6.99892 17.3636 6.85003 18.0624 6.71506C18.0033 6.68706 17.9644 6.65002 17.9421 6.6081C17.2741 6.77847 16.6488 6.96306 16.0711 7.1604ZM18.7855 6.58247C21.1922 6.16439 23.9545 5.90705 26.906 5.86053C26.8827 5.71386 26.8664 5.55342 26.8626 5.38319C23.925 5.52008 21.2234 5.86749 18.9381 6.3718C18.9235 6.45047 18.8713 6.52765 18.7855 6.58247ZM28.8962 5.46897C28.9106 5.42008 28.9272 5.37089 28.9463 5.32245C28.9053 5.32289 28.8642 5.32348 28.8233 5.32407C28.8488 5.37119 28.8733 5.41963 28.8962 5.46897Z" fill="#F9DE38"/>
<path d="M25.1583 13.319C25.1583 13.319 27.3947 12.9036 27.9087 10.995C27.9149 10.9948 27.9214 10.9948 27.9282 10.9948C28.3263 10.9948 29.722 11.1576 32.8551 12.9854C32.8551 12.9854 33.0788 12.8928 33.1336 12.5409C33.1336 12.5409 31.9576 11.9859 31.9223 11.8679C31.6773 11.0458 31.85 10.1304 31.85 10.1304L31.8493 10.1283C32.5006 11.7545 34.0252 11.8132 34.0252 11.8132C34.0327 11.7222 34.0194 11.6351 33.9942 11.5548C33.4926 11.4525 32.3859 11.0599 31.9573 9.56976C34.2609 8.95612 36.3212 8.63152 37.2715 8.50041C36.7285 8.28515 36.2014 8.229 35.7987 8.229C35.3588 8.229 35.0677 8.29611 35.0677 8.29611C35.2274 8.1164 35.2288 7.89107 35.2288 7.89107C34.3381 7.95255 33.8572 8.33567 33.721 8.46219C33.7133 8.47019 33.7055 8.47745 33.7052 8.47745C33.705 8.47745 33.7092 8.4733 33.721 8.46219C34.0588 8.12011 34.0365 7.60677 34.0365 7.60677C33.1787 7.80766 32.9101 8.26766 32.9101 8.26766C33.0684 7.77995 33.0564 7.44943 33.0564 7.44943C33.0564 7.44943 31.3749 8.09092 31.6949 9.63198L31.6946 9.63124C31.346 10.2834 31.4975 11.6945 31.4975 11.6945C31.4975 11.6945 30.8333 11.3957 30.4383 11.0021C30.0434 10.6086 29.8722 9.91762 29.8722 9.91762L29.8524 9.92399C30.4946 9.68295 30.9286 9.36724 31.2207 9.04071C30.9189 9.30709 30.5071 9.55569 29.9459 9.74887C29.5491 8.14485 29.005 6.8309 28.515 5.85607C28.3048 5.85385 28.0931 5.85282 27.8811 5.85282C27.5541 5.85282 27.2286 5.85533 26.906 5.86052C26.9898 6.38927 27.1633 6.73994 27.1633 6.73994C26.9734 6.63564 26.7698 6.62172 26.6749 6.62172C26.6405 6.62172 26.6203 6.62364 26.6203 6.62364C26.8786 7.5278 27.4578 7.97344 27.6454 8.09789C27.3239 7.90188 26.9438 7.86692 26.7134 7.86692C26.5855 7.86692 26.5039 7.87773 26.5039 7.87773C26.546 7.96218 26.5906 8.03863 26.6361 8.11092C26.582 8.19966 26.5476 8.29093 26.5272 8.37996C26.634 8.48841 26.7279 8.6176 26.7815 8.76664C26.7412 8.64026 26.6427 8.24293 26.8589 7.88751C26.8589 7.88751 28.2773 8.50871 28.2402 10.0643C28.419 10.1058 28.61 10.1299 28.8125 10.1299C29.0374 10.1299 29.2764 10.1001 29.5287 10.0314C29.538 10.0745 29.7022 10.8153 30.1582 11.159C30.1582 11.159 29.0873 10.6646 28.1727 10.6061C28.1697 10.6198 28.1666 10.6336 28.1633 10.6474C28.1076 10.6314 28.0521 10.6158 27.9967 10.6004C27.9944 10.6004 27.9921 10.6004 27.9898 10.6006C27.99 10.5998 27.99 10.5993 27.9901 10.5987C26.2226 10.1115 24.6574 9.98073 23.4859 9.98073C22.7321 9.98073 22.1416 10.0348 21.7647 10.0831C21.345 10.2247 21.0743 10.3797 21.0743 10.3797C22.0136 11.547 23.5316 11.6683 23.5316 11.6683C23.2613 11.8123 23.131 12.0636 23.131 12.0636C23.4262 12.1378 23.6987 12.1655 23.9407 12.1655C24.4944 12.1655 24.8901 12.0206 25.0399 11.9556C24.4898 12.2185 24.2202 12.7993 24.2202 12.7993C24.3056 12.8058 24.3876 12.8088 24.4662 12.8088C25.3224 12.8088 25.7793 12.4577 25.7793 12.4577C25.3347 12.9464 25.1583 13.319 25.1583 13.319ZM25.0651 11.9443C25.0654 11.9443 25.0587 11.9474 25.0399 11.9556C25.0526 11.9495 25.0648 11.9443 25.0651 11.9443ZM27.6454 8.09789C27.6572 8.10514 27.6679 8.1124 27.6676 8.1124C27.6673 8.1124 27.6613 8.10855 27.6454 8.09789ZM34.7556 11.5096C34.7491 11.4169 34.7113 11.3246 34.657 11.2373C34.4356 11.1874 34.1461 11.0892 33.9452 10.8988C34.0144 10.9689 34.1862 11.163 34.2363 11.4061C34.5108 11.4953 34.7556 11.5096 34.7556 11.5096ZM35.6584 11.0287C35.6205 10.9345 35.5691 10.8458 35.5098 10.7633C35.2085 10.7199 34.7636 10.6366 34.3267 10.4844C34.3267 10.4844 34.6031 10.6609 34.7963 10.8984C35.2815 11.0024 35.6584 11.0287 35.6584 11.0287ZM35.8191 10.2747C36.3181 10.2747 36.6067 10.1547 36.6067 10.1547C36.5661 10.1061 36.5165 10.0619 36.4615 10.0216C36.346 10.039 36.2052 10.0518 36.042 10.0518C35.7471 10.0518 35.379 10.0099 34.9532 9.87687C34.9532 9.87687 35.2208 10.0175 35.4785 10.2566C35.6009 10.2693 35.7146 10.2747 35.8191 10.2747ZM24.0013 9.71539C24.0013 9.71539 23.521 9.43894 23.2987 9.06664C23.1935 9.05449 23.1105 9.05153 23.0554 9.05153C23.0056 9.05153 22.9787 9.0539 22.9787 9.0539C23.027 9.2742 23.1964 9.47687 23.367 9.63228C23.5751 9.63717 23.7883 9.66235 24.0013 9.71539ZM36.2037 9.56428C37.0137 9.30827 37.5249 8.74308 37.5952 8.66204C37.2777 8.94708 36.6492 9.39983 35.8106 9.46013C35.8106 9.46013 35.9888 9.49139 36.2037 9.56428ZM25.1391 9.55183C25.1391 9.55183 24.7667 9.08516 24.6984 8.51789C24.5599 8.4487 24.4738 8.41211 24.4738 8.41211C24.4409 8.69034 24.5031 8.96145 24.5904 9.18768C24.7674 9.2822 24.9523 9.40161 25.1391 9.55183ZM26.1439 9.0942C26.1439 9.0942 25.8766 8.67893 25.8651 8.2767C25.7651 8.221 25.696 8.19255 25.696 8.19255C25.6226 8.3607 25.6325 8.55552 25.6749 8.73523C25.8312 8.84145 25.9916 8.9616 26.1439 9.0942ZM30.6182 7.21535C30.6182 7.21535 30.705 7.05654 30.8515 6.8832C30.7742 6.94661 30.7046 7.01787 30.6443 7.08765C30.6363 7.13002 30.6275 7.17269 30.6182 7.21535ZM29.726 6.64645C29.726 6.64645 29.8522 6.34853 30.1079 6.05252C29.9659 6.17386 29.8491 6.31045 29.7573 6.43682C29.7493 6.50497 29.7391 6.57475 29.726 6.64645Z" fill="#DF9723"/>
<path d="M27.0775 4.15457C27.1143 4.15353 27.1495 4.1525 27.1863 4.15131C27.1307 4.11916 27.0987 4.10272 27.0987 4.10272C27.0914 4.12005 27.0843 4.13739 27.0775 4.15457Z" fill="#C8AF93"/>
<path d="M26.8626 5.38318C27.3168 5.36199 27.7768 5.34584 28.2417 5.33488C28.1018 5.07962 27.9706 4.85621 27.8534 4.66613C27.5405 4.67146 27.2295 4.67887 26.9208 4.6885C26.8731 4.93132 26.8575 5.1654 26.8626 5.38318Z" fill="#DF9723"/>
<path d="M26.9208 4.68851C27.2295 4.67888 27.5405 4.67147 27.8534 4.66614C27.839 4.64273 27.8248 4.61992 27.8109 4.59754C27.6709 4.47754 27.5371 4.37858 27.4241 4.30169C27.2892 4.30465 27.1541 4.30821 27.0201 4.31206C26.9775 4.43902 26.9449 4.56495 26.9208 4.68851ZM27.0775 4.15472C27.1135 4.15354 27.1503 4.1525 27.1864 4.15146C27.1864 4.15131 27.1864 4.15131 27.1863 4.15131C27.1495 4.1525 27.1143 4.15354 27.0775 4.15457V4.15472Z" fill="#E18A1D"/>
<path d="M27.0201 4.31207C27.1541 4.30822 27.2892 4.30467 27.424 4.3017C27.3261 4.23504 27.2437 4.18466 27.1864 4.15148C27.1503 4.15251 27.1135 4.15355 27.0775 4.15474C27.0566 4.20733 27.0375 4.25978 27.0201 4.31207Z" fill="#E0781B"/>
<path d="M28.9463 5.32245C28.9968 5.32186 29.0481 5.32126 29.0987 5.32082C29.1267 5.20941 29.166 5.09222 29.2207 4.98437C29.2033 4.95696 29.193 4.94303 29.193 4.94303C29.0822 5.04244 29.0029 5.17919 28.9463 5.32245Z" fill="#DF9723"/>
<path d="M26.906 5.86053C27.2286 5.85535 27.5541 5.85283 27.8811 5.85283C28.0931 5.85283 28.3048 5.85387 28.515 5.85609C28.4214 5.66972 28.3298 5.49609 28.2417 5.3349C27.7768 5.34586 27.3168 5.36201 26.8626 5.38319C26.8664 5.55342 26.8827 5.71387 26.906 5.86053ZM29.0279 5.8192C29.0279 5.8192 29.0319 5.58601 29.0987 5.32082C29.0481 5.32126 28.9968 5.32186 28.9463 5.32245C28.9272 5.3709 28.9106 5.42008 28.8962 5.46897C28.9481 5.58023 28.9927 5.69698 29.0279 5.8192Z" fill="#DCAB2B"/>
<path d="M32.1452 11.645C31.9001 10.8231 32.0729 9.90754 32.0729 9.90754L31.9175 9.40842C31.5687 10.0606 31.7203 11.4717 31.7203 11.4717C31.7203 11.4717 31.0561 11.1729 30.6611 10.7794C30.266 10.3858 30.0951 9.69479 30.0951 9.69479L29.7506 9.80457C29.7506 9.80457 29.9112 10.5821 30.381 10.9361C30.381 10.9361 29.1519 10.3687 28.2029 10.3775L28.0245 10.7794C28.0245 10.7794 29.2656 10.5387 33.0779 12.7625C33.0779 12.7625 33.3016 12.6699 33.3565 12.3181C33.3565 12.3181 32.1803 11.7631 32.1452 11.645Z" fill="#44A940"/>
<path d="M24.0013 9.71539C24.0013 9.71539 23.3077 9.31612 23.2015 8.83108C23.2015 8.83108 24.1413 8.74915 25.1391 9.55183C25.1391 9.55183 24.6132 8.893 24.6966 8.18929C24.6966 8.18929 25.4938 8.52841 26.1439 9.09419C26.1439 9.09419 25.7172 8.43152 25.9188 7.96973C25.9188 7.96973 26.6214 8.25877 26.7916 8.79671L26.7962 8.80885L26.7916 8.79671C26.7651 8.72293 26.6203 8.27966 26.8589 7.88751C26.8589 7.88751 28.6275 8.66219 28.1633 10.6474C24.2581 9.52753 21.2971 10.1569 21.2971 10.1569C21.2971 10.1569 22.6535 9.38027 24.0013 9.71539Z" fill="#69C63F"/>
<path d="M24.443 12.5765C24.443 12.5765 24.7126 11.9959 25.2627 11.7328C25.3058 11.7139 25.2851 11.7221 25.2627 11.7328C25.0473 11.8262 24.324 12.0846 23.3538 11.8408C23.3538 11.8408 23.4841 11.5895 23.7544 11.4455C23.7544 11.4455 22.2364 11.3242 21.297 10.1569C21.297 10.1569 24.2581 9.52755 28.1633 10.6474C27.7162 12.6636 25.3811 13.0962 25.3811 13.0962C25.3811 13.0962 25.5574 12.7236 26.0021 12.2348C26.0021 12.2348 25.4574 12.6535 24.443 12.5765Z" fill="#44A940"/>
<path d="M26.8873 9.24176C26.8799 8.41671 25.9245 7.99863 25.9245 7.99863L25.8999 8.20056C26.6355 8.41479 26.8873 9.24176 26.8873 9.24176Z" fill="#A7DA44"/>
<path d="M26.2147 9.34326C25.7049 8.63436 24.7378 8.23762 24.7378 8.23762L24.7129 8.43999C25.4234 8.72429 26.2147 9.34326 26.2147 9.34326Z" fill="#A7DA44"/>
<path d="M28.1444 9.61096C27.9067 8.48043 26.9132 7.9419 26.9132 7.9419C26.8183 8.06294 26.8189 8.15657 26.8189 8.15657C27.9495 8.92947 28.1444 9.61096 28.1444 9.61096Z" fill="#A7DA44"/>
<path d="M35.8105 9.46014C35.8105 9.46014 36.5414 9.58814 36.8295 9.93185C36.8295 9.93185 36.0997 10.2354 34.9532 9.87689C34.9532 9.87689 35.6559 10.2461 35.8812 10.8059C35.8812 10.8059 35.0916 10.7507 34.3267 10.4845C34.3267 10.4845 34.9499 10.8821 34.9784 11.2868C34.9784 11.2868 34.2864 11.2461 33.9237 10.8778L33.915 10.8696L33.9237 10.8778C33.9763 10.9276 34.2785 11.2296 34.2479 11.5904C34.2479 11.5904 32.5194 11.5242 31.9573 9.56977C35.1212 8.72694 37.8263 8.42946 37.8263 8.42946C37.8263 8.42946 37.0469 9.3714 35.8105 9.46014Z" fill="#69C63F"/>
<path d="M34.2593 7.38411C34.2593 7.38411 34.2816 7.8973 33.9439 8.23938C33.9163 8.26516 33.9302 8.2536 33.9439 8.23938C34.08 8.11301 34.5609 7.72989 35.4514 7.66826C35.4514 7.66826 35.4502 7.89359 35.2905 8.0733C35.2905 8.0733 36.5756 7.777 37.8263 8.42945C37.8263 8.42945 35.1212 8.72694 31.9573 9.56992C31.4807 7.91241 33.2793 7.22662 33.2793 7.22662C33.2793 7.22662 33.2911 7.55715 33.1329 8.04501C33.1329 8.04501 33.4015 7.58485 34.2593 7.38411Z" fill="#44A940"/>
<path d="M34.9616 11.2434L34.8978 11.0824C34.8833 11.0828 34.8688 11.0831 34.8544 11.0831C34.1873 11.083 33.6607 10.5387 33.6607 10.5387C34.0102 11.1683 34.9616 11.2434 34.9616 11.2434Z" fill="#A7DA44"/>
<path d="M35.8274 10.7794L35.7636 10.6185C35.067 10.5828 34.1653 10.312 34.1653 10.312C34.8753 10.7239 35.8274 10.7794 35.8274 10.7794Z" fill="#A7DA44"/>
<path d="M34.1813 11.563C34.2079 11.4461 34.1682 11.3745 34.1682 11.3745C32.9264 11.0728 32.5224 10.5821 32.5224 10.5821C33.187 11.3858 34.1813 11.563 34.1813 11.563Z" fill="#A7DA44"/>
<path d="M29.0279 5.81918C29.0279 5.81918 29.0408 5.05621 29.4158 4.7202C29.4158 4.7202 29.9459 5.43117 29.726 6.64645C29.726 6.64645 30.0494 5.88378 30.7087 5.58629C30.7087 5.58629 30.7989 6.40082 30.6182 7.21535C30.6182 7.21535 30.9931 6.53016 31.4973 6.45267C31.4973 6.45267 31.5857 7.16528 31.1954 7.58054L31.1869 7.59002L31.1954 7.58054C31.2472 7.52084 31.5666 7.17535 32.0274 7.1635C32.0274 7.1635 32.294 8.94027 29.9459 9.74887C29.0279 6.038 27.3215 3.87989 27.3215 3.87989C27.3215 3.87989 28.6658 4.56509 29.0279 5.81918Z" fill="#69C63F"/>
<path d="M26.7267 7.65492C26.7267 7.65492 27.3685 7.57032 27.8682 7.87507C27.9059 7.90025 27.8887 7.88751 27.8682 7.87507C27.6807 7.75062 27.1014 7.30499 26.8432 6.40083C26.8432 6.40083 27.1275 6.37505 27.3861 6.51712C27.3861 6.51712 26.7528 5.23725 27.3215 3.8799C27.3215 3.8799 29.0279 6.03801 29.9459 9.74902C27.955 10.4344 26.7267 8.67627 26.7267 8.67627C26.7267 8.67627 27.1405 8.62456 27.7867 8.72812C27.7867 8.72812 27.1534 8.50826 26.7267 7.65492Z" fill="#44A940"/>
<path d="M30.8508 7.88751C31.5724 7.45462 31.4748 6.47194 31.4748 6.47194L31.285 6.55683C31.4554 7.25728 30.8508 7.88751 30.8508 7.88751Z" fill="#A7DA44"/>
<path d="M30.4336 7.40085C30.8085 6.62528 30.6862 5.64438 30.6862 5.64438L30.4964 5.72927C30.5922 6.44602 30.4336 7.40085 30.4336 7.40085Z" fill="#A7DA44"/>
<path d="M31.1383 9.08667C32.017 8.31081 32.0063 7.23538 32.0063 7.23538C31.988 7.23375 31.9708 7.23301 31.9545 7.23301C31.8352 7.23301 31.7715 7.27094 31.7715 7.27094C31.6428 8.57763 31.1383 9.08667 31.1383 9.08667Z" fill="#A7DA44"/>
<path d="M36.5015 6.98083C36.6228 6.98083 36.7159 6.93017 36.7704 6.85476C36.7343 6.86706 36.6938 6.87372 36.6497 6.87372C36.5683 6.87372 36.4744 6.85091 36.371 6.79757C36.2171 6.71802 36.1545 6.60868 36.1542 6.5035C36.1542 6.48512 36.156 6.4669 36.1597 6.44883C36.1283 6.44409 36.0971 6.43935 36.0656 6.43461C35.9643 6.5752 35.9774 6.77787 36.2228 6.90454C36.3262 6.95802 36.4202 6.98083 36.5015 6.98083Z" fill="#F89E23"/>
<path d="M36.1597 6.44885C36.17 6.39744 36.1947 6.3484 36.2302 6.30633C36.1625 6.33403 36.1054 6.37952 36.0656 6.43463C36.0971 6.43937 36.1283 6.44411 36.1597 6.44885Z" fill="#F7B42A"/>
<path d="M32.1382 6.00928C32.1591 6.00928 32.1794 6.00854 32.1988 6.0072C32.126 6.00187 32.0537 5.99669 31.9806 5.99165C32.0173 6.00113 32.0589 6.00721 32.1056 6.00869C32.1167 6.00913 32.1275 6.00928 32.1382 6.00928Z" fill="#F89E23"/>
<path d="M32.1988 6.0072C32.3607 5.9955 32.4706 5.93728 32.5192 5.86439C32.4569 5.88809 32.3788 5.90231 32.2863 5.90231C32.2757 5.90231 32.2649 5.90202 32.2537 5.90172C32.0204 5.89372 31.9127 5.77623 31.9126 5.65816C31.9126 5.61727 31.9254 5.57638 31.9503 5.53979C31.7043 5.62423 31.6908 5.91698 31.9806 5.99165C32.0537 5.99668 32.126 6.00187 32.1988 6.0072Z" fill="#F7B42A"/>
<path d="M18.3399 6.76782C18.5184 6.76782 18.6488 6.70308 18.7229 6.61582C18.6579 6.64397 18.5793 6.66086 18.4881 6.66086C18.4736 6.66086 18.4586 6.66041 18.4435 6.65952C18.4229 6.65834 18.4032 6.65656 18.3845 6.65434C18.2764 6.67419 18.1691 6.69449 18.0624 6.71508C18.1199 6.74234 18.1965 6.76086 18.2953 6.76664C18.3104 6.76752 18.3254 6.76782 18.3399 6.76782ZM17.9421 6.60812C18.0063 6.59182 18.0712 6.57552 18.1362 6.55937C18.0887 6.51611 18.0676 6.46308 18.0675 6.40752C18.0673 6.33537 18.1024 6.25922 18.1604 6.19581C17.9817 6.27655 17.8685 6.46871 17.9421 6.60812Z" fill="#F89E23"/>
<path d="M18.0624 6.71506C18.1691 6.69446 18.2764 6.67417 18.3845 6.65431C18.2673 6.63994 18.1867 6.60528 18.1362 6.55935C18.0712 6.5755 18.0063 6.5918 17.9421 6.60809C17.9644 6.65002 18.0033 6.68706 18.0624 6.71506Z" fill="#F7B42A"/>
<path d="M21.6623 8.57391C21.8154 8.57391 21.9148 8.51895 21.9674 8.4431C21.9231 8.45821 21.8708 8.4668 21.8102 8.4668C21.7933 8.4668 21.7758 8.46621 21.7576 8.46473C21.482 8.44384 21.3637 8.33643 21.3635 8.21998C21.3635 8.16813 21.3869 8.1145 21.4305 8.06591C21.1266 8.21109 21.1093 8.53376 21.6095 8.57184C21.6278 8.57332 21.6453 8.57391 21.6623 8.57391Z" fill="#F89E23"/>
<path d="M15.4108 9.78638C15.5587 9.78638 15.6983 9.72001 15.7706 9.63378C15.7074 9.66208 15.6343 9.67926 15.559 9.67926C15.5528 9.67926 15.5464 9.67926 15.54 9.67897C15.316 9.67038 15.1482 9.4843 15.1485 9.33452C15.1485 9.30993 15.1531 9.28652 15.1625 9.26489C14.8365 9.34089 15.0479 9.7729 15.3919 9.78608C15.3982 9.78623 15.4046 9.78638 15.4108 9.78638Z" fill="#F89E23"/>
<path d="M18.5358 12.3854C18.6876 12.3854 18.785 12.3312 18.83 12.2578C18.7887 12.2709 18.7398 12.2783 18.6836 12.2783C18.6456 12.2783 18.6041 12.2749 18.559 12.2676C18.3444 12.2323 18.257 12.1329 18.2571 12.0316C18.2573 11.9867 18.2746 11.9412 18.3058 11.9009C18.0564 11.999 17.9961 12.3066 18.4109 12.3746C18.4559 12.382 18.4975 12.3854 18.5358 12.3854Z" fill="#F89E23"/>
<path d="M38.4882 15.1613C38.6401 15.1613 38.7376 15.1069 38.7824 15.0335C38.7411 15.0467 38.6924 15.0541 38.6362 15.0541C38.598 15.0541 38.5565 15.0507 38.5116 15.0433C38.2968 15.0081 38.2094 14.9087 38.2097 14.8075C38.2097 14.7624 38.227 14.7171 38.2581 14.677C38.0088 14.7749 37.9487 15.0823 38.3635 15.1503C38.4085 15.1578 38.4501 15.1613 38.4882 15.1613Z" fill="#F89E23"/>
<path d="M27.9993 14.2288C28.1535 14.2288 28.2393 14.1777 28.2718 14.1079C28.2365 14.1168 28.1952 14.1217 28.147 14.1217C28.1233 14.1217 28.0978 14.1205 28.0706 14.118C27.7753 14.0901 27.607 13.9464 27.607 13.8199C27.607 13.7972 27.6123 13.7752 27.6233 13.7544C27.3103 13.8571 27.4624 14.1817 27.9224 14.2249C27.9497 14.2276 27.9753 14.2288 27.9993 14.2288Z" fill="#F89E23"/>
<path d="M31.9437 16.4974C32.0659 16.4974 32.1523 16.4459 32.2004 16.3746C32.1681 16.3845 32.132 16.3902 32.092 16.3902C32.0601 16.3902 32.0257 16.3866 31.9889 16.3789C31.7327 16.326 31.6091 16.2165 31.6091 16.1106C31.6093 16.0799 31.6195 16.0497 31.64 16.0213C31.3528 16.1425 31.4053 16.3961 31.8407 16.4863C31.8774 16.4939 31.9118 16.4974 31.9437 16.4974Z" fill="#F89E23"/>
<path d="M35.9633 12.0381C36.0061 12.0381 36.0519 12.0352 36.1 12.0288C36.2412 12.0103 36.3184 11.9609 36.3495 11.9002C36.3202 11.9094 36.2866 11.9168 36.2482 11.9218C36.2 11.928 36.1543 11.931 36.1115 11.931C35.8692 11.9312 35.7184 11.8363 35.7183 11.7212C35.7181 11.6829 35.735 11.6421 35.7708 11.6018C35.4145 11.783 35.566 12.0381 35.9633 12.0381Z" fill="#F89E23"/>
<path d="M21.9503 15.158C21.9932 15.158 22.0389 15.155 22.0872 15.1487C22.2284 15.1301 22.3056 15.0808 22.3366 15.0199C22.3074 15.0292 22.2736 15.0365 22.2352 15.0415C22.1871 15.0479 22.1413 15.0509 22.0985 15.0509C21.8561 15.0509 21.7053 14.9561 21.7052 14.8411C21.7052 14.8026 21.7219 14.7618 21.7577 14.7217C21.4014 14.9029 21.5529 15.158 21.9503 15.158Z" fill="#F89E23"/>
<path d="M24.976 6.61609C25.0188 6.61609 25.0645 6.61312 25.1126 6.6069C25.2541 6.58823 25.3313 6.53875 25.3623 6.47786C25.3329 6.48705 25.2993 6.49446 25.2608 6.49949C25.2126 6.50586 25.1668 6.50883 25.124 6.50883C24.8818 6.50883 24.731 6.41401 24.7308 6.29904C24.7308 6.26067 24.7474 6.22008 24.783 6.17993C24.4271 6.36112 24.5787 6.61624 24.976 6.61609Z" fill="#F89E23"/>
<path d="M42.6067 10.6068C42.6329 10.6068 42.6601 10.6049 42.6881 10.6009C42.8087 10.5834 42.8911 10.5329 42.9388 10.4678C42.9083 10.4793 42.8742 10.488 42.8363 10.4935C42.8083 10.4975 42.7809 10.4994 42.7545 10.4994C42.5015 10.4996 42.3311 10.3228 42.3314 10.1573C42.3314 10.1108 42.345 10.065 42.3741 10.0244C42.0126 10.1644 42.2062 10.6068 42.6067 10.6068Z" fill="#F89E23"/>
<path d="M40.2632 8.83731C40.4139 8.83716 40.5134 8.78264 40.5644 8.70723C40.521 8.7219 40.47 8.7302 40.4114 8.7302C40.3848 8.7302 40.3567 8.72842 40.3271 8.72487C40.0395 8.69035 39.9014 8.56012 39.901 8.4339C39.901 8.39419 39.9143 8.35493 39.941 8.31908C39.6343 8.44501 39.6951 8.77375 40.1789 8.83198C40.2085 8.83553 40.2367 8.83731 40.2632 8.83731Z" fill="#F89E23"/>
<path d="M36.8155 6.27966C37.1688 6.56381 36.8894 7.06515 36.371 6.79759C35.8523 6.52959 36.371 5.92247 36.8155 6.27966Z" fill="#F68C1A"/>
<path d="M36.6497 6.87372C36.8473 6.87372 36.9703 6.73875 36.9732 6.58201C36.9734 6.58023 36.9734 6.57845 36.9734 6.57668C36.9735 6.47638 36.9248 6.36749 36.8155 6.27963C36.7189 6.202 36.619 6.17 36.527 6.17C36.3206 6.17 36.1538 6.33119 36.1543 6.50349C36.1546 6.60868 36.2171 6.71801 36.371 6.79757C36.4744 6.8509 36.5683 6.87372 36.6497 6.87372ZM36.6187 6.24023C36.6803 6.24023 36.7473 6.26186 36.8119 6.31371C37.0015 6.46601 36.9196 6.71179 36.7011 6.71179C36.6466 6.71179 36.5836 6.69653 36.5141 6.66068C36.2421 6.52023 36.396 6.24023 36.6187 6.24023Z" fill="#F3631D"/>
<path d="M32.3547 5.41963C32.8732 5.50897 32.7702 5.91964 32.2538 5.90171C31.7374 5.88408 31.8361 5.33045 32.3547 5.41963Z" fill="#FABA27"/>
<path d="M32.2863 5.90231C32.5493 5.90217 32.6961 5.78735 32.696 5.66794C32.696 5.56557 32.5886 5.45994 32.3547 5.41964C32.3161 5.41298 32.2798 5.40986 32.2461 5.40986C32.0305 5.40986 31.9124 5.53446 31.9126 5.65816C31.9127 5.77624 32.0204 5.89372 32.2538 5.90172C32.2649 5.90202 32.2757 5.90231 32.2863 5.90231ZM32.3186 5.44349C32.3425 5.44349 32.368 5.44557 32.3952 5.45031C32.7514 5.51149 32.6896 5.78898 32.3469 5.78898C32.3395 5.78898 32.3321 5.78883 32.3244 5.78853C31.9893 5.77698 32.0235 5.44349 32.3186 5.44349Z" fill="#F68720"/>
<path d="M18.4435 6.05237C18.8069 6.01741 18.9601 6.18586 18.9407 6.3543C18.9223 6.51564 18.7454 6.67698 18.4435 6.65949C17.8263 6.62364 18.0731 6.08808 18.4435 6.05237Z" fill="#FABA27"/>
<path d="M18.4881 6.66083C18.7629 6.66083 18.9232 6.50749 18.9407 6.3543C18.9419 6.34467 18.9425 6.33504 18.9423 6.32556C18.942 6.18245 18.8145 6.04778 18.5367 6.04778C18.5072 6.04778 18.4762 6.04926 18.4435 6.05237C18.2358 6.07237 18.067 6.24941 18.0675 6.40749C18.0676 6.46305 18.0887 6.51608 18.1362 6.55934C18.1867 6.60527 18.2673 6.63994 18.3845 6.65431C18.4032 6.65653 18.4229 6.65831 18.4435 6.65949C18.4586 6.66038 18.4736 6.66083 18.4881 6.66083ZM18.5281 6.07445C18.7453 6.07445 18.837 6.18674 18.8241 6.29904C18.8113 6.41134 18.6937 6.52349 18.4924 6.52349C18.4817 6.52349 18.471 6.52319 18.4599 6.5226C18.0078 6.49623 18.1887 6.10393 18.4599 6.07785C18.4839 6.07563 18.5066 6.07445 18.5281 6.07445Z" fill="#F68720"/>
<path d="M21.7576 7.90233C22.0086 7.85685 22.1563 8.01878 22.1609 8.18071C22.1652 8.3336 22.0419 8.48634 21.7576 8.46471C21.1724 8.42027 21.2957 7.98589 21.7576 7.90233Z" fill="#49B845"/>
<path d="M21.8102 8.4668C22.0523 8.4668 22.1606 8.32931 22.1609 8.18902C22.1609 8.1862 22.1609 8.18353 22.1609 8.18072C22.1567 8.0376 22.041 7.89449 21.8409 7.89449C21.8145 7.89449 21.7868 7.89701 21.7576 7.90234C21.513 7.94649 21.3634 8.08901 21.3635 8.21998C21.3637 8.33642 21.4821 8.44383 21.7576 8.46472C21.7758 8.4662 21.7933 8.4668 21.8102 8.4668ZM21.8769 7.93553C22.0114 7.93553 22.0893 8.03183 22.092 8.12798C22.0948 8.22413 22.0227 8.32042 21.8569 8.32042C21.8453 8.32042 21.8333 8.31998 21.821 8.31894C21.4274 8.28916 21.5102 7.99686 21.821 7.94071C21.8406 7.93716 21.8592 7.93553 21.8769 7.93553Z" fill="#308839"/>
<path d="M15.4926 9.15006C16.2894 9.22517 15.9351 9.69422 15.54 9.67896C15.1449 9.66385 14.9248 9.09643 15.4926 9.15006Z" fill="#C41E25"/>
<path d="M15.559 9.67926C15.7731 9.67926 15.9697 9.5403 15.9704 9.40326C15.971 9.29244 15.8431 9.18311 15.4926 9.15007C15.467 9.14755 15.4431 9.14636 15.4206 9.14636C15.2274 9.14636 15.1486 9.23199 15.1485 9.33451C15.1482 9.48429 15.316 9.67037 15.54 9.67896C15.5464 9.67926 15.5528 9.67926 15.559 9.67926ZM15.5049 9.18222C15.5203 9.18222 15.5368 9.1831 15.5544 9.18473C16.0923 9.2354 15.8655 9.54785 15.6 9.54785C15.5957 9.54785 15.5914 9.5477 15.5871 9.54755C15.3283 9.53763 15.1787 9.18222 15.5049 9.18222Z" fill="#8D181D"/>
<path d="M18.7318 11.7765C19.1417 11.867 19.1023 12.3566 18.559 12.2676C18.0158 12.1784 18.2873 11.6784 18.7318 11.7765Z" fill="#F68C1A"/>
<path d="M18.6836 12.2783C18.9013 12.2783 19.0072 12.167 19.0072 12.0477C19.0073 11.9357 18.9139 11.8168 18.7318 11.7765C18.6924 11.7677 18.6543 11.7637 18.6181 11.7637C18.4072 11.7637 18.2574 11.8993 18.2571 12.0316C18.257 12.1329 18.3444 12.2323 18.559 12.2676C18.6041 12.2749 18.6456 12.2783 18.6836 12.2783ZM18.6848 11.8411C18.7079 11.8411 18.7322 11.8436 18.7573 11.8491C18.9961 11.902 18.9949 12.1679 18.7266 12.1679C18.7023 12.1679 18.6759 12.1657 18.6473 12.1611C18.3328 12.1094 18.4481 11.8411 18.6848 11.8411Z" fill="#F3631D"/>
<path d="M38.6844 14.5522C39.094 14.6429 39.0547 15.1324 38.5116 15.0433C37.9682 14.9541 38.2399 14.4541 38.6844 14.5522Z" fill="#C41E25"/>
<path d="M38.6362 15.0541C38.8537 15.0541 38.9596 14.9427 38.9596 14.8235C38.9598 14.7115 38.8665 14.5925 38.6844 14.5522C38.645 14.5436 38.6069 14.5396 38.5708 14.5396C38.3596 14.5396 38.2099 14.6752 38.2097 14.8075C38.2094 14.9087 38.2968 15.0081 38.5116 15.0433C38.5565 15.0507 38.598 15.0541 38.6362 15.0541ZM38.6256 14.5526C38.6518 14.5526 38.6795 14.5555 38.7081 14.5618C38.9811 14.622 38.9798 14.9264 38.6731 14.9264C38.6454 14.9264 38.6152 14.9239 38.5824 14.9186C38.2226 14.8595 38.3547 14.5526 38.6256 14.5526Z" fill="#8D181D"/>
<path d="M28.0706 13.618C28.4678 13.6393 28.6384 14.1715 28.0706 14.118C27.5027 14.0644 27.4039 13.5824 28.0706 13.618Z" fill="#C41E25"/>
<path d="M28.147 14.1217C28.351 14.1217 28.4353 14.0325 28.4353 13.9291C28.4352 13.7918 28.2863 13.6295 28.0706 13.618C28.0469 13.6167 28.0242 13.6161 28.0024 13.6161C27.7301 13.6161 27.607 13.7118 27.607 13.8199C27.607 13.9464 27.7753 14.0901 28.0706 14.118C28.0978 14.1205 28.1233 14.1217 28.147 14.1217ZM28.0639 13.6764C28.0777 13.6764 28.0921 13.6768 28.107 13.6775C28.345 13.6903 28.4538 13.9944 28.1553 13.9944C28.1404 13.9944 28.1242 13.9937 28.107 13.9921C27.7626 13.9598 27.6925 13.6764 28.0639 13.6764Z" fill="#8D181D"/>
<path d="M31.9889 15.8613C32.2638 15.8216 32.3937 15.9721 32.3932 16.1225C32.3926 16.278 32.2526 16.4336 31.9889 16.3789C31.4703 16.2719 31.4949 15.9328 31.9889 15.8613Z" fill="#49B845"/>
<path d="M32.092 16.3902C32.2889 16.39 32.3927 16.2562 32.3932 16.1225C32.3932 16.122 32.3932 16.1214 32.3932 16.121C32.3929 15.9876 32.29 15.8549 32.0748 15.8549C32.048 15.8549 32.0192 15.857 31.9889 15.8613C31.7391 15.8974 31.6093 16.0022 31.6091 16.1106C31.6091 16.2165 31.7327 16.326 31.9889 16.3789C32.0257 16.3866 32.0601 16.3902 32.092 16.3902ZM32.1115 15.9109C32.2456 15.9109 32.3095 15.9939 32.3092 16.0768C32.3089 16.1599 32.2444 16.2429 32.1223 16.2429C32.1025 16.2429 32.0812 16.2407 32.0583 16.2361C31.7367 16.1697 31.7521 15.9591 32.0583 15.9149C32.0772 15.9121 32.0949 15.9109 32.1115 15.9109Z" fill="#308839"/>
<path d="M36.0507 11.4397C36.3877 11.323 36.7914 11.8502 36.2482 11.9218C35.7049 11.9932 35.4827 11.6362 36.0507 11.4397Z" fill="#F68C1A"/>
<path d="M36.1114 11.931C36.1543 11.931 36.2 11.928 36.2482 11.9218C36.4405 11.8965 36.5141 11.8141 36.5141 11.7234C36.5141 11.5831 36.338 11.4228 36.1516 11.4228C36.118 11.4228 36.0839 11.4282 36.0507 11.4397C35.8181 11.52 35.7181 11.6274 35.7182 11.7212C35.7184 11.8363 35.8692 11.9311 36.1114 11.931ZM36.1965 11.4498C36.4025 11.4498 36.5903 11.742 36.2612 11.7852C36.2288 11.7894 36.1981 11.7914 36.1694 11.7914C35.8736 11.7914 35.7805 11.5814 36.1285 11.4611C36.151 11.4532 36.1738 11.4498 36.1965 11.4498Z" fill="#F3631D"/>
<path d="M22.0376 14.5595C22.3748 14.4429 22.7785 14.9702 22.2352 15.0416C21.6918 15.1131 21.4697 14.7559 22.0376 14.5595Z" fill="#FABA27"/>
<path d="M22.0985 15.0509C22.1413 15.0509 22.1871 15.0479 22.2352 15.0416C22.4274 15.0162 22.5012 14.934 22.5012 14.8433C22.5012 14.703 22.325 14.5427 22.1386 14.5427C22.105 14.5427 22.0711 14.5479 22.0376 14.5595C21.8051 14.6399 21.7051 14.7473 21.7051 14.8411C21.7053 14.9561 21.8561 15.0509 22.0985 15.0509ZM22.1915 14.5697C22.418 14.5697 22.6244 14.8906 22.2628 14.938C22.2271 14.9428 22.1932 14.945 22.1614 14.945C21.8369 14.945 21.7348 14.7142 22.117 14.582C22.1416 14.5736 22.1668 14.5697 22.1915 14.5697Z" fill="#F68720"/>
<path d="M25.0631 6.01741C25.4003 5.90111 25.804 6.42808 25.2608 6.49949C24.7175 6.5709 24.4953 6.21385 25.0631 6.01741Z" fill="#F68C1A"/>
<path d="M25.124 6.50885C25.1668 6.50885 25.2126 6.50589 25.2608 6.49951C25.4531 6.47418 25.5267 6.39196 25.5267 6.30129C25.5267 6.16099 25.3504 6.00069 25.164 6.00069C25.1304 6.00069 25.0965 6.00603 25.0631 6.01743C24.8308 6.09788 24.7307 6.20514 24.7308 6.29907C24.731 6.41403 24.8818 6.50885 25.124 6.50885ZM25.1542 6.02306C25.375 6.02306 25.5765 6.33596 25.2237 6.38233C25.1891 6.38692 25.1562 6.389 25.1253 6.389C24.8089 6.389 24.7092 6.16396 25.0817 6.03507C25.1057 6.02677 25.1299 6.02306 25.1542 6.02306Z" fill="#F3631D"/>
<path d="M42.6386 9.88637C43.1821 9.79733 43.3302 10.4222 42.8363 10.4935C42.3424 10.5649 42.0955 9.97585 42.6386 9.88637Z" fill="#49B845"/>
<path d="M42.7545 10.4994C42.7809 10.4994 42.8083 10.4975 42.8363 10.4935C43.0425 10.4637 43.1369 10.3375 43.1372 10.2068C43.1375 10.0455 42.9944 9.87778 42.7415 9.87778C42.709 9.87778 42.6746 9.88045 42.6386 9.88637C42.4225 9.92193 42.3315 10.0366 42.3314 10.1573C42.3311 10.3228 42.5015 10.4996 42.7545 10.4994ZM42.8175 9.90904C43.137 9.90904 43.2058 10.2925 42.8837 10.339C42.864 10.3418 42.8449 10.3431 42.8264 10.3431C42.521 10.3431 42.3881 9.97393 42.7458 9.91512C42.7709 9.91097 42.7948 9.90904 42.8175 9.90904Z" fill="#308839"/>
<path d="M40.3271 8.16413C40.594 8.15169 40.7395 8.29925 40.7521 8.44681C40.7656 8.60399 40.6284 8.76118 40.3271 8.72488C39.7427 8.65466 39.7755 8.18991 40.3271 8.16413Z" fill="#FABA27"/>
<path d="M40.4113 8.73019C40.6416 8.73019 40.7527 8.60249 40.753 8.46826C40.753 8.46115 40.7527 8.45389 40.7521 8.44678C40.7399 8.30515 40.6054 8.16337 40.3583 8.16337C40.3481 8.16337 40.3376 8.16367 40.3271 8.16411C40.0469 8.17715 39.9007 8.30352 39.901 8.43389C39.9014 8.56012 40.0395 8.69034 40.3271 8.72486C40.3567 8.72842 40.3848 8.73019 40.4113 8.73019ZM40.4425 8.19567C40.6195 8.19567 40.716 8.2973 40.7245 8.39878C40.7333 8.50041 40.6543 8.6019 40.4804 8.6019C40.4614 8.6019 40.4413 8.60071 40.4201 8.59819C40.0014 8.54782 40.0248 8.21478 40.4201 8.19626C40.4276 8.19596 40.4352 8.19567 40.4425 8.19567Z" fill="#F68720"/>
</g>
<defs>
<filter id="filter0_d_6_105" x="0" y="0" width="58" height="42.8909" filterUnits="userSpaceOnUse" color-interpolation-filters="sRGB">
<feFlood flood-opacity="0" result="BackgroundImageFix"/>
<feColorMatrix in="SourceAlpha" type="matrix" values="0 0 0 0 0 0 0 0 0 0 0 0 0 0 0 0 0 0 127 0" result="hardAlpha"/>
<feOffset dy="4"/>
<feGaussianBlur stdDeviation="2"/>
<feComposite in2="hardAlpha" operator="out"/>
<feColorMatrix type="matrix" values="0 0 0 0 0 0 0 0 0 0 0 0 0 0 0 0 0 0 0.25 0"/>
<feBlend mode="normal" in2="BackgroundImageFix" result="effect1_dropShadow_6_105"/>
<feBlend mode="normal" in="SourceGraphic" in2="effect1_dropShadow_6_105" result="shape"/>
</filter>
</defs>
</svg>
